<?xml version="1.0" encoding="UTF-8"?><svg id="a" xmlns="http://www.w3.org/2000/svg" width="405.34" height="405.34" viewBox="0 0 405.34 405.34"><circle cx="202.67" cy="202.67" r="202.67" fill="#29a3dc"/><path d="M-264.74,89.7C-162.35,100.67.97,105.19,190.54,52.53,427.63-13.32,588.89-136.13,671.83-209.49" fill="none" stroke="#fff" stroke-miterlimit="10" stroke-width="40"/><rect x="125.68" y="57.97" width="46.46" height="238.78" rx="23.23" ry="23.23" fill="#fff"/><rect x="168.5" y="208.26" width="46.46" height="132.09" rx="23.23" ry="23.23" transform="translate(466.03 82.58) rotate(90)" fill="#fff"/><circle cx="216.19" cy="154.46" r="24.47" fill="#fff"/><line x1="213.13" y1="168.5" x2="194.32" y2="254.6" fill="none" stroke="#fff" stroke-miterlimit="10" stroke-width="12"/><line x1="249.45" y1="249" x2="196.59" y2="249" fill="none" stroke="#fff" stroke-miterlimit="10" stroke-width="12"/><rect x="254.68" y="240.18" width="13.94" height="69.69" rx="6.97" ry="6.97" transform="translate(-94.09 142.56) rotate(-26)" fill="#fff"/><path d="M210.67,61.7c-5.27,1.77-21.74,8.05-33.3,25.45-10.12,15.22-10.79,30.38-10.75,36.22" fill="none" stroke="#fff" stroke-miterlimit="10" stroke-width="11"/><path d="M70.56,94.06c3.68-.54,22.36-2.92,39.4,9.74,19.87,14.75,21.14,37.78,21.25,40.8" fill="none" stroke="#fff" stroke-miterlimit="10" stroke-width="11"/><rect x="100.89" y="92.54" width="57.58" height="20.75" transform="translate(68.83 -51.05) rotate(30)" fill="#fff"/><rect x="158.76" y="73.07" width="26.57" height="14.39" transform="translate(2.55 165.79) rotate(-51.78)" fill="#fff"/><path d="M166.14,240.79c-.14,7.71,5.32,14.36,12.61,15.68,7.8,1.41,15.69-3.65,17.71-11.67" fill="none" stroke="#fff" stroke-miterlimit="10" stroke-width="12"/><path d="M200.35,170.39c1.16,1.71,2.68,4.37,3.66,7.91,1.05,3.77,1.07,7.02.92,9.14" fill="none" stroke="#fff" stroke-miterlimit="10" stroke-width="4"/><path d="M224.48,175.35c-1.8,1.02-4.33,2.74-6.77,5.48-2.6,2.92-4.05,5.83-4.85,7.8" fill="none" stroke="#fff" stroke-miterlimit="10" stroke-width="4"/><path d="M250.6,287.43c.12-.14,2.99-3.54,7.24-2.84,3.27.54,4.94,3.11,5.21,3.53" fill="none" stroke="#fff" stroke-miterlimit="10" stroke-width="5"/><rect x="254.81" y="280.23" width="5.05" height="2.74" fill="#fff"/><rect x="175.65" y="297.74" width="200" height="12" rx="6" ry="6" transform="translate(-105.26 151.61) rotate(-26)" fill="#fff"/><path d="M274.04,289.05c.33.62,2.13,3.82,6.12,5.01,3.62,1.08,6.6-.21,7.32-.55" fill="none" stroke="#fff" stroke-miterlimit="10" stroke-width="4"/><path d="M260.75,306.74c.61-.34,3.78-2.2,4.91-6.2,1.02-3.63-.33-6.59-.68-7.31" fill="none" stroke="#fff" stroke-miterlimit="10" stroke-width="4"/></svg>